<?xml version="1.0" encoding="UTF-8" standalone="no"?>
<svg
   xmlns:dc="http://purl.org/dc/elements/1.1/"
   xmlns:cc="http://creativecommons.org/ns#"
   xmlns:rdf="http://www.w3.org/1999/02/22-rdf-syntax-ns#"
   xmlns:svg="http://www.w3.org/2000/svg"
   xmlns="http://www.w3.org/2000/svg"
   xmlns:sodipodi="http://sodipodi.sourceforge.net/DTD/sodipodi-0.dtd"
   xmlns:inkscape="http://www.inkscape.org/namespaces/inkscape"
   inkscape:version="1.0 (4035a4fb49, 2020-05-01)"
   sodipodi:docname="github_3.svg"
   id="svg8"
   version="1.1"
   viewBox="0 0 125.08701 121.98933"
   height="121.98933mm"
   width="125.08701mm">
  <defs
     id="defs2" />
  <sodipodi:namedview
     fit-margin-bottom="0"
     fit-margin-right="0"
     fit-margin-left="0"
     fit-margin-top="0"
     inkscape:window-maximized="1"
     inkscape:window-y="1235"
     inkscape:window-x="3832"
     inkscape:window-height="837"
     inkscape:window-width="1440"
     showgrid="false"
     inkscape:document-rotation="0"
     inkscape:current-layer="layer1"
     inkscape:document-units="mm"
     inkscape:cy="257.53096"
     inkscape:cx="185.87784"
     inkscape:zoom="0.98994949"
     inkscape:pageshadow="2"
     inkscape:pageopacity="0.0"
     borderopacity="1.0"
     bordercolor="#666666"
     pagecolor="#ffffff"
     id="base">
    <sodipodi:guide
       id="guide1301"
       orientation="0,473.93165"
       position="-0.26659631,121.98933" />
    <sodipodi:guide
       id="guide1303"
       orientation="473.93165,0"
       position="125.12782,121.98933" />
    <sodipodi:guide
       id="guide1305"
       orientation="0,-473.93165"
       position="125.12782,-3.4050864" />
    <sodipodi:guide
       id="guide1307"
       orientation="-473.93165,0"
       position="-0.26659631,-3.4050864" />
  </sodipodi:namedview>
  <metadata
     id="metadata5">
    <rdf:RDF>
      <cc:Work
         rdf:about="">
        <dc:format>image/svg+xml</dc:format>
        <dc:type
           rdf:resource="http://purl.org/dc/dcmitype/StillImage" />
        <dc:title></dc:title>
      </cc:Work>
    </rdf:RDF>
  </metadata>
  <g
     transform="translate(-8.6290263,-20.457372)"
     id="layer1"
     inkscape:groupmode="layer"
     inkscape:label="Layer 1">
    <g
       transform="matrix(0.26458333,0,0,0.26458333,168.62417,102.10036)"
       id="g1105">
</g>
    <g
       transform="matrix(0.26458333,0,0,0.26458333,168.62417,102.10036)"
       id="g1107">
</g>
    <g
       transform="matrix(0.26458333,0,0,0.26458333,168.62417,102.10036)"
       id="g1109">
</g>
    <g
       transform="matrix(0.26458333,0,0,0.26458333,168.62417,102.10036)"
       id="g1111">
</g>
    <g
       transform="matrix(0.26458333,0,0,0.26458333,168.62417,102.10036)"
       id="g1113">
</g>
    <g
       transform="matrix(0.26458333,0,0,0.26458333,168.62417,102.10036)"
       id="g1115">
</g>
    <g
       transform="matrix(0.26458333,0,0,0.26458333,168.62417,102.10036)"
       id="g1117">
</g>
    <g
       transform="matrix(0.26458333,0,0,0.26458333,168.62417,102.10036)"
       id="g1119">
</g>
    <g
       transform="matrix(0.26458333,0,0,0.26458333,168.62417,102.10036)"
       id="g1121">
</g>
    <g
       transform="matrix(0.26458333,0,0,0.26458333,168.62417,102.10036)"
       id="g1123">
</g>
    <g
       transform="matrix(0.26458333,0,0,0.26458333,168.62417,102.10036)"
       id="g1125">
</g>
    <g
       transform="matrix(0.26458333,0,0,0.26458333,168.62417,102.10036)"
       id="g1127">
</g>
    <g
       transform="matrix(0.26458333,0,0,0.26458333,168.62417,102.10036)"
       id="g1129">
</g>
    <g
       transform="matrix(0.26458333,0,0,0.26458333,168.62417,102.10036)"
       id="g1131">
</g>
    <g
       transform="matrix(0.26458333,0,0,0.26458333,168.62417,102.10036)"
       id="g1133">
</g>
    <path
       style="stroke-width:7.81721"
       fill-rule="evenodd"
       d="m 71.166601,20.457372 c -34.552006,0 -62.5375747,27.985527 -62.5375747,62.537489 0,27.672829 17.9013257,51.046179 42.7599767,59.332369 3.126922,0.54722 4.299568,-1.3289 4.299568,-2.97052 0,-1.48524 -0.07389,-6.41001 -0.07389,-11.64752 -15.712617,2.8923 -19.777598,-3.83043 -21.028252,-7.34823 -0.703172,-1.79792 -3.75225,-7.34815 -6.410152,-8.8334 -2.188857,-1.1725 -5.315626,-4.06495 -0.07388,-4.14311 4.924894,-0.0784 8.442558,4.53399 9.615198,6.41011 5.628389,9.45882 14.618123,6.80089 18.213927,5.15923 0.546588,-4.06484 2.188864,-6.80084 3.98684,-8.3643 -13.914637,-1.56341 -28.454607,-6.95731 -28.454607,-30.877846 0,-6.800954 2.423309,-12.42932 6.410143,-16.806957 -0.624883,-1.563446 -2.814186,-7.973527 0.624884,-16.572424 0,0 5.237491,-1.641619 17.197862,6.410091 5.003045,-1.407094 10.318675,-2.110649 15.634306,-2.110649 5.315648,0 10.631433,0.703632 15.634319,2.110649 11.960342,-8.12988 17.197821,-6.410091 17.197821,-6.410091 3.43951,8.598897 1.25123,15.008978 0.62487,16.572424 3.98687,4.377637 6.4102,9.927815 6.4102,16.806957 0,23.998726 -14.618123,29.314436 -28.532748,30.877846 2.266996,1.95433 4.221277,5.70652 4.221277,11.56942 0,8.36441 -0.07388,15.08718 -0.07388,17.1978 0,1.64164 1.172952,3.59591 4.299436,2.97052 A 62.639104,62.639104 0 0 0 133.71603,82.994861 c 0,-34.551962 -27.98563,-62.537489 -62.537472,-62.537489 z"
       id="path1290" />
  </g>
</svg>
