<svg 
	xmlns="http://www.w3.org/2000/svg"
	viewBox="0 0 125.47866 125.47866"
	height="125.47866mm"
	width="125.47867mm"> 
    <path
        style="fill:#5f98d1;stroke-width:0.999999"
        d="m 802.85742,372.57227 a 255.99999,255.99999 0 0 0 -256,256 255.99999,255.99999 0 0 0 256,256 255.99999,255.99999 0 0 0 255.99998,-256 255.99999,255.99999 0 0 0 -255.99998,-256 z m -160.4414,147.46484 h 320.2539 L 836.80469,651.0957 c -8.95801,9.32701 -21.33071,14.59961 -34.26172,14.59961 -12.93097,0 -25.30371,-5.2726 -34.26172,-14.59961 z m -7.3418,9.01758 96.95703,99.00976 -96.95703,99.8125 z m 335.5664,0 V 727.87695 L 874.16406,628.4668 Z m -230.96874,106.7832 21.3496,22.23047 c 10.79804,11.245 25.93249,17.69336 41.52149,17.69336 15.59002,0 30.72442,-6.44934 41.52344,-17.69336 l 21.34765,-22.23047 97.25586,101.26758 h -320.2539 z"
        transform="translate(-8.5261758,-20.457372) matrix(0.92626955,0,0,0.92626955,-125.49517,-70.850957) scale(0.26458333)" />
    <path
        style="fill:#3a6da1;stroke-width:0.999999"
        d="M 962.66992,520.03711 836.80469,651.0957 c -8.95801,9.32701 -21.33071,14.59961 -34.26172,14.59961 -11.25613,0 -22.0872,-3.99874 -30.61328,-11.18554 l 19.98242,20.23242 0.002,0.002 c 3.48882,0.66158 7.04491,1.01758 10.62891,1.01758 15.59002,0 30.72442,-6.44934 41.52344,-17.69336 l 21.34765,-22.23047 97.25586,101.26758 h -320.2539 l 147.12109,147.12305 c 4.41199,0.22601 8.85231,0.34375 13.32031,0.34375 141.38502,0 256.00003,-114.61501 256.00003,-256 0,-4.246 -0.1095,-8.4671 -0.3125,-12.66211 z m -320.2539,217.06836 0.92382,-0.96289 -0.92578,0.96289 z m 0.92382,-0.96289 96.32032,-100.29102 C 700.87889,596.25028 635.07422,529.05469 635.07422,529.05469 l 96.95703,99.00976 -96.95703,99.8125 z M 970.64062,529.05469 V 727.87695 L 874.16406,628.4668 Z m -228.54687,109.30469 5.45313,5.67773 c -1.69975,-1.7883 -3.53267,-3.69568 -5.45313,-5.67773 z m 22.77148,23.33984 c 0.37988,0.32816 0.76639,0.64719 1.1543,0.96484 -0.40398,-0.33945 -0.71327,-0.60168 -1.1543,-0.96484 z m 20.43165,11.39453 c 2.16213,0.68159 4.36865,1.22242 6.60156,1.64648 -2.51384,-0.57483 -4.67586,-1.11674 -6.60156,-1.64648 z"
        transform="translate(-8.5261758,-20.457372) matrix(0.92626955,0,0,0.92626955,-125.49517,-70.850957) scale(0.26458333)" />
</svg>
