<svg
    xmlns="http://www.w3.org/2000/svg"
    viewBox="0 0 125.39442 125.39442"
    height="125.39442mm"
    width="125.39442mm">
    <path
		transform="translate(-8.36243,-20.457368) translate(-174.625,-71.059524)"
        style="fill:#4a86c5;stroke-width:0.264583"
        d="m 245.68437,91.516892 a 62.697253,62.697253 0 0 0 -62.69694,62.697468 62.697253,62.697253 0 0 0 62.69694,62.69695 62.697253,62.697253 0 0 0 62.69748,-62.69695 62.697253,62.697253 0 0 0 -62.69748,-62.697468 z m -23.08903,24.129798 c 4.61354,0 7.44966,3.0262 7.53856,7.00422 0,3.8936 -2.9253,7.00991 -7.62589,7.00991 h -0.091 c -4.52226,0 -7.45174,-3.11631 -7.45174,-7.00991 0,-3.97775 3.0186,-7.00422 7.63002,-7.00422 z m 39.73918,18.59421 c 8.87333,7.9e-4 15.52308,5.79634 15.52308,18.2516 v 23.25233 h -13.47876 v -21.6948 c 0,-5.4491 -1.9517,-9.16947 -6.82956,-9.16947 -3.72639,0 -5.94187,2.50687 -6.91792,4.93045 -0.35534,0.86731 -0.44649,2.07271 -0.44649,3.28662 v 22.64668 h -13.48186 c 0,0 0.18018,-36.74422 0,-40.54998 h 13.48083 v 5.74694 c 1.79096,-2.75829 4.99079,-6.70037 12.15068,-6.70037 z m -12.15068,6.70037 c -0.0249,0.0426 -0.0621,0.0899 -0.0868,0.13177 h 0.0868 z m -34.41857,-5.74591 h 13.47928 v 40.54947 h -13.47928 z" />
    <path
		transform="translate(-8.36243,-20.457368) translate(-174.625,-71.059524)"
        style="fill:#3d80b2;stroke-width:0.264583"
        d="m 290.01604,109.87443 -24.61659,24.6171 c 7.29585,1.22662 12.45815,7.02798 12.45815,18.00097 v 23.25233 h -13.47876 v -21.6948 c 0,-5.4491 -1.9517,-9.16947 -6.82956,-9.16947 -1.29358,0 -2.40058,0.30673 -3.3414,0.80254 l -3.05976,3.05924 c -0.19869,0.35267 -0.37284,0.71131 -0.51676,1.06867 -0.35534,0.86731 -0.44649,2.07271 -0.44649,3.28662 v 22.64668 h -13.48186 c 0,0 0.0251,-5.80666 0.0475,-12.60388 l -7.506,7.506 v 5.0984 h -5.0984 l -22.80119,22.8017 c 24.48481,24.48481 64.18626,24.48481 88.67108,0 24.48692,-24.48665 24.4848,-64.18518 0,-88.6721 z" />
    <path
		transform="translate(-8.36243,-20.457368) translate(-174.625,-71.059524)"
        style="fill:#4a86c5;stroke-width:0.264583"
        d="m 305.39569,173.34604 c 0.22966,-0.71782 0.43868,-1.44357 0.64347,-2.17117 -0.204,0.72866 -0.41857,1.45335 -0.64347,2.17117 z" />
    <polygon
		transform="translate(-8.36243,-20.457368) translate(-174.625,-71.059524) matrix(0.26458333,0,0,0.26458333,182.98727,91.517027)"
        points="465.082,301.07 465.097,301.017 "
        style="fill:#377ca5" />
    <path
		transform="translate(-8.36243,-20.457368) translate(-174.625,-71.059524)"
        style="fill:#377ca5;stroke-width:0.264583"
        d="m 228.14332,117.7401 c 1.24492,1.24764 1.94709,2.96476 1.99058,4.91081 0,3.8936 -2.9253,7.00991 -7.62589,7.00991 h -0.091 c -2.5104,0 -4.52851,-0.96145 -5.82858,-2.48202 l -0.0527,0.0527 7.96437,7.96385 h 4.74441 v 40.54947 h -13.43174 l 40.32519,40.28229 c 23.27909,-3.91054 42.20074,-20.63553 49.2585,-42.68008 0.22461,-0.71861 0.43911,-1.44227 0.64387,-2.17093 0,-0.005 0.002,-0.0111 0.004,-0.015 l -33.96588,-33.96641 -0.13229,0.1323 c 3.64656,2.90507 5.91178,7.90036 5.91178,15.16548 V 175.7448 H 264.37918 V 154.05 c 0,-5.4491 -1.9517,-9.16947 -6.82956,-9.16947 -3.72639,0 -5.94187,2.50687 -6.91792,4.93045 -0.35534,0.86731 -0.44649,2.07271 -0.44649,3.28662 v 22.64668 h -13.48186 c 0,0 0.18018,-36.74422 0,-40.54998 h 8.95346 l -17.41703,-17.41754 z m 22.04052,21.9816 v 1.21957 c 0.15206,-0.2342 0.31854,-0.47897 0.49248,-0.72709 z m 0,1.21957 c -0.0249,0.0426 -0.0621,0.0899 -0.0868,0.13177 h 0.0868 z m -34.41857,34.63819 -0.0589,0.0589 0.0589,0.0589 z" />
</svg>
